# xmcd CD database file
# Copyright (C) 1993-1996 Ti Kan
#
# Track frame offsets:
#  150
#  16182
#  32483
#  48015
#  62459
#  78004
#  97139
#  110504
#  129676
#  144842
#  157190
#  172980
#
# Disc length: 2461 seconds
#
# Revision: 1
# Processed by: cddbd v1.5.2PL0 Copyright (c) Steve Scherf et al.
# Submitted via: Advanced CD Ripper Pro 2.0
#
DISCID=8c099b0c
DTITLE=Unknown Artist - Unknown Album
DYEAR=2003
DGENRE=
TTITLE0=El Amor de Mi Vida
TTITLE1=Le llamaban loca
TTITLE2=Entraste
TTITLE3=La Metira
TTITLE4=La farra
TTITLE5=Un Amigo sincero
TTITLE6=La desepcion
TTITLE7=Mi forma de sentir
TTITLE8=El adios Ranchero
TTITLE9=Concha de Alma
TTITLE10=Cuando perdi a mi esposa
TTITLE11=Toma Cochina...!!!
EXTD=
EXTT0=
EXTT1=
EXTT2=
EXTT3=
EXTT4=
EXTT5=
EXTT6=
EXTT7=
EXTT8=
EXTT9=
EXTT10=
EXTT11=
PLAYORDER=
